<svg xmlns:ns0="http://www.w3.org/2000/svg" xmlns="http://www.w3.org/2000/svg" version="1.1" viewBox="915 735 685 185">
  <title>Noena logo (wordmark only, cropped)</title>
  <ns0:g>
    <ns0:path d="M979.7,770.9c14,0,25.2,4,33.7,12,8.5,8,12.7,19.2,12.7,33.7v76.5h-20v-72c0-10.5-2.8-18.4-8.5-23.9-5.7-5.4-13.3-8.1-23-8.1s-17.2,3.3-23,9.9c-5.8,6.6-8.7,15.5-8.7,26.9v67.2h-20v-119.7h20v16.2c8-12.5,20.2-18.7,36.7-18.7Z" />
    <ns0:path d="M1162.3,878.3c-11.8,11.5-26.7,17.2-44.5,17.2s-32.7-5.7-44.5-17.1c-11.8-11.4-17.7-26.3-17.7-44.6s5.9-34,17.6-45.6c11.7-11.6,26.6-17.4,44.6-17.4s32.6,5.8,44.5,17.4c11.8,11.6,17.7,26.8,17.7,45.6s-5.9,33-17.7,44.5ZM1117.8,877.6c11.8,0,21.7-4,29.7-12.1,8-8.1,12-18.7,12-31.9s-4-24.3-11.9-32.4c-7.9-8.1-17.9-12.1-29.9-12.1s-21.9,4-29.9,12.1c-7.9,8.1-11.9,18.9-11.9,32.4s4,23.8,11.9,31.9c7.9,8.1,17.9,12.1,29.9,12.1ZM1079.6,751.7v-15h76.5v15h-76.5Z" />
    <ns0:path d="M1262.2,895.6c-17.3,0-31.7-5.7-43-17.1-11.3-11.4-17-26.4-17-45.1s5.6-33.7,16.9-45.2c11.2-11.5,25.4-17.2,42.6-17.2s30.9,5.5,41.6,16.5c10.7,11,16.1,25.6,16.1,43.7s-.2,4.2-.5,6.5h-96.7c.7,12.7,4.7,22.7,12,30.2,7.3,7.5,16.7,11.2,28,11.2s16.2-2.1,22.5-6.4c6.3-4.2,10.3-10,12-17.4l17.7,5.7c-3,10.8-9.3,19.3-18.9,25.4-9.6,6.1-20.7,9.1-33.4,9.1ZM1223.3,821.9h76.5c-1.3-10.2-5.4-18.4-12.2-24.7-6.8-6.3-15.3-9.5-25.5-9.5s-18.5,3.1-25.5,9.2c-7,6.2-11.4,14.5-13.2,25Z" />
    <ns0:path d="M1406.7,770.9c14,0,25.2,4,33.7,12,8.5,8,12.7,19.2,12.7,33.7v76.5h-20v-72c0-10.5-2.8-18.4-8.5-23.9-5.7-5.4-13.3-8.1-23-8.1s-17.2,3.3-23,9.9c-5.8,6.6-8.7,15.5-8.7,26.9v67.2h-20v-119.7h20v16.2c8-12.5,20.2-18.7,36.7-18.7Z" />
    <ns0:path d="M1592.8,878.3c1.3,0,2.7-.2,4.2-.5v17c-2.5.5-5.3.7-8.5.7-6.2,0-11.3-1.5-15.5-4.6-4.2-3.1-6.7-7.5-7.5-13.1-8.7,11.8-22,17.7-40,17.7s-22.9-3.2-30.9-9.5c-7.9-6.3-11.9-15.1-11.9-26.2s3.8-19.4,11.5-25.2c7.7-5.8,17.2-9.3,28.7-10.5l42.2-4.7v-2.2c0-9.5-2.8-16.8-8.5-22-5.7-5.2-13-7.7-22-7.7s-13.5,1.9-18.6,5.6c-5.1,3.7-8.5,8.8-10.1,15.1l-17.7-4c2.7-10.8,8.3-19.1,17-24.7,8.7-5.7,18.8-8.5,30.5-8.5s27.2,4,36.1,11.9c8.9,7.9,13.4,19.2,13.4,33.9v54.5c0,4.8,2.5,7.2,7.5,7.2ZM1532.1,879.6c10.2-.7,18.2-4.1,24.2-10.4,6-6.2,9-14.8,9-25.6v-8.5l-39,4.5c-15.7,1.7-23.5,8.3-23.5,20s2.9,12,8.6,15.5c5.7,3.5,12.6,5,20.6,4.5Z" />
  </ns0:g>
</svg>